# xmcd CD database file
#
# Track frame offsets:
#	150
#	18620
#	54184
#	81697
#	99413
#	110548
#	129069
#	145707
#	170752
#	196898
#	217019
#
# Disc length: 3137 seconds
#
# Revision: 0
# Processed by: cddbd v1.5.2PL0 Copyright (c) Steve Scherf et al.
# Submitted via: CDex 1.51
#
DISCID=970c3f0b
DTITLE=Hubert Sumlin - I´m Your Backdoor Man
DYEAR=1993
DGENRE=Blues
TTITLE0=Hey Baby
TTITLE1=She Loved Me One Time
TTITLE2=I Got The Blues
TTITLE3=Look Don´t Touch
TTITLE4=Killing Floor
TTITLE5=Little Red Rooster
TTITLE6=All I Want Is Your Love
TTITLE7=This Is For You
TTITLE8=Since I Was A Child
TTITLE9=I Did What I Could
TTITLE10=I Don´t Want Nobody
EXTD=YEAR: 1993
EXTT0=
EXTT1=
EXTT2=
EXTT3=
EXTT4=
EXTT5=
EXTT6=
EXTT7=
EXTT8=
EXTT9=
EXTT10=
PLAYORDER=
